# xmcd
#
# Track frame offsets: 
#        150
#        18225
#        44470
#        69292
#        89100
#        114625
#        148105
#        166660
#        193932
#        213410
#        241285
#
# Disc length: 3491 seconds
#
# Revision: 4
# Processed by: cddbd v1.5.2PL0 Copyright (c) Steve Scherf et al.
# Submitted via: ExactAudioCopy v0.99pb5
#
DISCID=9c0da10b
DTITLE=Robben Ford - Su p ern a tu ral
DYEAR=1999
DGENRE=Blues
TTITLE0=Let Me In
TTITLE1=Supernatural
TTITLE2=Nothing to Nobody
TTITLE3=Water for the Wicked
TTITLE4=Don't Lose Your Faith in Me
TTITLE5=Hey, Brother
TTITLE6=Deaf, Dumb and Blind  (for O.T.)
TTITLE7=If
TTITLE8=When I Cry Today
TTITLE9=You got Me Knockin'
TTITLE10=Lovin' Cup
EXTD=YEAR: 1999
EXTT0=
EXTT1=
EXTT2=
EXTT3=
EXTT4=
EXTT5=
EXTT6=
EXTT7=
EXTT8=
EXTT9=
EXTT10=
PLAYORDER=
